<svg width="800" height="600" xmlns="http://www.w3.org/2000/svg">
  <!-- Background -->
  <rect width="800" height="600" fill="#f8f9fa" stroke="#dee2e6" stroke-width="2"/>
  
  <!-- Title -->
  <text x="400" y="30" text-anchor="middle" font-family="Arial, sans-serif" font-size="20" font-weight="bold" fill="#212529">ESP32 Irrigation System - Circuit Diagram</text>
  
  <!-- ESP32 DevKit -->
  <g id="esp32">
    <rect x="300" y="200" width="200" height="120" fill="#4a90e2" stroke="#2c5aa0" stroke-width="2" rx="5"/>
    <text x="400" y="220" text-anchor="middle" font-family="Arial, sans-serif" font-size="14" font-weight="bold" fill="white">ESP32 DevKit v1</text>
    
    <!-- Left side pins -->
    <circle cx="310" cy="240" r="3" fill="#ffd700"/>
    <text x="320" y="245" font-family="Arial, sans-serif" font-size="10" fill="white">GPIO 4</text>
    
    <circle cx="310" cy="260" r="3" fill="#ffd700"/>
    <text x="320" y="265" font-family="Arial, sans-serif" font-size="10" fill="white">GPIO 16</text>
    
    <circle cx="310" cy="280" r="3" fill="#ffd700"/>
    <text x="320" y="285" font-family="Arial, sans-serif" font-size="10" fill="white">GPIO 17</text>
    
    <circle cx="310" cy="300" r="3" fill="#ffd700"/>
    <text x="320" y="305" font-family="Arial, sans-serif" font-size="10" fill="white">GPIO 21</text>
    
    <!-- Right side pins -->
    <circle cx="490" cy="240" r="3" fill="#ffd700"/>
    <text x="470" y="245" font-family="Arial, sans-serif" font-size="10" fill="white">GPIO 22</text>
    
    <circle cx="490" cy="260" r="3" fill="#ffd700"/>
    <text x="470" y="265" font-family="Arial, sans-serif" font-size="10" fill="white">GPIO 25</text>
    
    <circle cx="490" cy="280" r="3" fill="#ffd700"/>
    <text x="470" y="285" font-family="Arial, sans-serif" font-size="10" fill="white">GPIO 32</text>
    
    <circle cx="490" cy="300" r="3" fill="#ffd700"/>
    <text x="470" y="305" font-family="Arial, sans-serif" font-size="10" fill="white">GPIO 34</text>
    
    <!-- Power pins -->
    <circle cx="350" cy="330" r="3" fill="#ff4444"/>
    <text x="360" y="335" font-family="Arial, sans-serif" font-size="10" fill="white">3V3</text>
    
    <circle cx="400" cy="330" r="3" fill="#000000"/>
    <text x="410" y="335" font-family="Arial, sans-serif" font-size="10" fill="white">GND</text>
    
    <circle cx="450" cy="330" r="3" fill="#ff4444"/>
    <text x="460" y="335" font-family="Arial, sans-serif" font-size="10" fill="white">5V</text>
  </g>
  
  <!-- DHT22 Sensor -->
  <g id="dht22">
    <rect x="50" y="220" width="80" height="40" fill="#28a745" stroke="#1e7e34" stroke-width="2" rx="3"/>
    <text x="90" y="235" text-anchor="middle" font-family="Arial, sans-serif" font-size="12" font-weight="bold" fill="white">DHT22</text>
    <text x="90" y="250" text-anchor="middle" font-family="Arial, sans-serif" font-size="10" fill="white">Temp/Humid</text>
    
    <!-- Connection line -->
    <line x1="130" y1="240" x2="310" y2="240" stroke="#333" stroke-width="2"/>
    <text x="220" y="235" text-anchor="middle" font-family="Arial, sans-serif" font-size="9" fill="#666">Data → GPIO 4</text>
  </g>
  
  <!-- BMP280 Sensor -->
  <g id="bmp280">
    <rect x="50" y="280" width="80" height="40" fill="#17a2b8" stroke="#117a8b" stroke-width="2" rx="3"/>
    <text x="90" y="295" text-anchor="middle" font-family="Arial, sans-serif" font-size="12" font-weight="bold" fill="white">BMP280</text>
    <text x="90" y="310" text-anchor="middle" font-family="Arial, sans-serif" font-size="10" fill="white">Pressure</text>
    
    <!-- I2C connections -->
    <line x1="130" y1="300" x2="310" y2="300" stroke="#333" stroke-width="2"/>
    <line x1="130" y1="290" x2="490" y2="240" stroke="#333" stroke-width="2"/>
    <text x="200" y="295" text-anchor="middle" font-family="Arial, sans-serif" font-size="9" fill="#666">I2C</text>
  </g>
  
  <!-- Soil Moisture Sensor -->
  <g id="soil">
    <rect x="50" y="340" width="80" height="40" fill="#8b4513" stroke="#654321" stroke-width="2" rx="3"/>
    <text x="90" y="355" text-anchor="middle" font-family="Arial, sans-serif" font-size="12" font-weight="bold" fill="white">Soil</text>
    <text x="90" y="370" text-anchor="middle" font-family="Arial, sans-serif" font-size="10" fill="white">Moisture</text>
    
    <!-- Connection line -->
    <line x1="130" y1="360" x2="490" y2="300" stroke="#333" stroke-width="2"/>
    <text x="310" y="355" text-anchor="middle" font-family="Arial, sans-serif" font-size="9" fill="#666">Analog → GPIO 34</text>
  </g>
  
  <!-- Light Sensor -->
  <g id="light">
    <rect x="50" y="400" width="80" height="40" fill="#ffc107" stroke="#e0a800" stroke-width="2" rx="3"/>
    <text x="90" y="415" text-anchor="middle" font-family="Arial, sans-serif" font-size="12" font-weight="bold" fill="black">Light</text>
    <text x="90" y="430" text-anchor="middle" font-family="Arial, sans-serif" font-size="10" fill="black">Sensor</text>
    
    <!-- Connection line -->
    <line x1="130" y1="420" x2="490" y2="280" stroke="#333" stroke-width="2"/>
    <text x="310" y="415" text-anchor="middle" font-family="Arial, sans-serif" font-size="9" fill="#666">LDR → GPIO 32</text>
  </g>
  
  <!-- Valve 1 -->
  <g id="valve1">
    <rect x="600" y="220" width="80" height="40" fill="#dc3545" stroke="#c82333" stroke-width="2" rx="3"/>
    <text x="640" y="235" text-anchor="middle" font-family="Arial, sans-serif" font-size="12" font-weight="bold" fill="white">Valve 1</text>
    <text x="640" y="250" text-anchor="middle" font-family="Arial, sans-serif" font-size="10" fill="white">Main</text>
    
    <!-- Relay box -->
    <rect x="550" y="225" width="30" height="30" fill="#6c757d" stroke="#495057" stroke-width="1" rx="2"/>
    <text x="565" y="245" text-anchor="middle" font-family="Arial, sans-serif" font-size="8" fill="white">RLY</text>
    
    <!-- Connection lines -->
    <line x1="310" y1="260" x2="550" y2="240" stroke="#333" stroke-width="2"/>
    <line x1="580" y1="240" x2="600" y2="240" stroke="#333" stroke-width="2"/>
    <text x="430" y="255" text-anchor="middle" font-family="Arial, sans-serif" font-size="9" fill="#666">GPIO 16 → Relay</text>
  </g>
  
  <!-- Valve 2 -->
  <g id="valve2">
    <rect x="600" y="280" width="80" height="40" fill="#dc3545" stroke="#c82333" stroke-width="2" rx="3"/>
    <text x="640" y="295" text-anchor="middle" font-family="Arial, sans-serif" font-size="12" font-weight="bold" fill="white">Valve 2</text>
    <text x="640" y="310" text-anchor="middle" font-family="Arial, sans-serif" font-size="10" fill="white">Secondary</text>
    
    <!-- Relay box -->
    <rect x="550" y="285" width="30" height="30" fill="#6c757d" stroke="#495057" stroke-width="1" rx="2"/>
    <text x="565" y="305" text-anchor="middle" font-family="Arial, sans-serif" font-size="8" fill="white">RLY</text>
    
    <!-- Connection lines -->
    <line x1="310" y1="280" x2="550" y2="300" stroke="#333" stroke-width="2"/>
    <line x1="580" y1="300" x2="600" y2="300" stroke="#333" stroke-width="2"/>
    <text x="430" y="295" text-anchor="middle" font-family="Arial, sans-serif" font-size="9" fill="#666">GPIO 17 → Relay</text>
  </g>
  
  <!-- Fan -->
  <g id="fan">
    <rect x="600" y="340" width="80" height="40" fill="#6f42c1" stroke="#5a32a3" stroke-width="2" rx="3"/>
    <text x="640" y="355" text-anchor="middle" font-family="Arial, sans-serif" font-size="12" font-weight="bold" fill="white">Fan</text>
    <text x="640" y="370" text-anchor="middle" font-family="Arial, sans-serif" font-size="10" fill="white">PWM</text>
    
    <!-- MOSFET box -->
    <rect x="550" y="345" width="30" height="30" fill="#343a40" stroke="#23272b" stroke-width="1" rx="2"/>
    <text x="565" y="365" text-anchor="middle" font-family="Arial, sans-serif" font-size="8" fill="white">MOS</text>
    
    <!-- Connection lines -->
    <line x1="490" y1="260" x2="550" y2="360" stroke="#333" stroke-width="2"/>
    <line x1="580" y1="360" x2="600" y2="360" stroke="#333" stroke-width="2"/>
    <text x="520" y="315" text-anchor="middle" font-family="Arial, sans-serif" font-size="9" fill="#666">GPIO 25 → PWM</text>
  </g>
  
  <!-- Power Supply -->
  <g id="power">
    <rect x="300" y="450" width="200" height="60" fill="#fd7e14" stroke="#e55a00" stroke-width="2" rx="5"/>
    <text x="400" y="470" text-anchor="middle" font-family="Arial, sans-serif" font-size="14" font-weight="bold" fill="white">Power Supply</text>
    <text x="400" y="490" text-anchor="middle" font-family="Arial, sans-serif" font-size="12" fill="white">5V/3A + 12V/2A</text>
    
    <!-- Power connections -->
    <line x1="400" y1="450" x2="400" y2="330" stroke="#ff4444" stroke-width="3"/>
    <line x1="450" y1="450" x2="450" y2="330" stroke="#ff4444" stroke-width="3"/>
    <line x1="350" y1="450" x2="350" y2="330" stroke="#ff4444" stroke-width="3"/>
  </g>
  
  <!-- Ground connections -->
  <line x1="400" y1="330" x2="90" y2="380" stroke="#000" stroke-width="2"/>
  <line x1="400" y1="330" x2="640" y2="380" stroke="#000" stroke-width="2"/>
  
  <!-- Legend -->
  <g id="legend">
    <rect x="20" y="500" width="760" height="80" fill="#f8f9fa" stroke="#dee2e6" stroke-width="1" rx="3"/>
    <text x="30" y="520" font-family="Arial, sans-serif" font-size="14" font-weight="bold" fill="#212529">Connection Legend:</text>
    
    <line x1="30" y1="535" x2="60" y2="535" stroke="#333" stroke-width="2"/>
    <text x="70" y="540" font-family="Arial, sans-serif" font-size="12" fill="#666">Digital/Analog Signal</text>
    
    <line x1="200" y1="535" x2="230" y2="535" stroke="#ff4444" stroke-width="3"/>
    <text x="240" y="540" font-family="Arial, sans-serif" font-size="12" fill="#666">Power (+5V/+3.3V)</text>
    
    <line x1="370" y1="535" x2="400" y2="535" stroke="#000" stroke-width="2"/>
    <text x="410" y="540" font-family="Arial, sans-serif" font-size="12" fill="#666">Ground (GND)</text>
    
    <text x="30" y="560" font-family="Arial, sans-serif" font-size="11" fill="#666">• Use appropriate pull-up/pull-down resistors where indicated</text>
    <text x="30" y="575" font-family="Arial, sans-serif" font-size="11" fill="#666">• Ensure proper voltage levels for all sensor inputs (3.3V logic)</text>
  </g>
</svg>